<mxfile host="Electron" agent="Mozilla/5.0 (Macintosh; Intel Mac OS X 10_15_7) AppleWebKit/537.36 (KHTML, like Gecko) draw.io/28.1.2 Chrome/138.0.7204.243 Electron/37.4.0 Safari/537.36" version="28.1.2">
  <diagram name="Page-1" id="QH4INl9LwC9-kRBBmAEC">
    <mxGraphModel dx="1310" dy="965" grid="1" gridSize="10" guides="1" tooltips="1" connect="1" arrows="1" fold="1" page="1" pageScale="1" pageWidth="827" pageHeight="1169" math="0" shadow="0">
      <root>
        <mxCell id="0" />
        <mxCell id="1" parent="0" />
        <mxCell id="v9-iwY4V38GGb9OesN-k-1" value="RKE2 Cluster (Air-Gapped)" style="whiteSpace=wrap;strokeWidth=2;" vertex="1" parent="1">
          <mxGeometry x="291" y="549" width="2677" height="844" as="geometry" />
        </mxCell>
        <mxCell id="v9-iwY4V38GGb9OesN-k-2" value="Cilium Components" style="whiteSpace=wrap;strokeWidth=2;" vertex="1" parent="1">
          <mxGeometry x="555" y="903" width="531" height="297" as="geometry" />
        </mxCell>
        <mxCell id="v9-iwY4V38GGb9OesN-k-3" value="Worker Nodes" style="whiteSpace=wrap;strokeWidth=2;" vertex="1" parent="1">
          <mxGeometry x="1416" y="751" width="1259" height="449" as="geometry" />
        </mxCell>
        <mxCell id="v9-iwY4V38GGb9OesN-k-4" value="Control Plane" style="whiteSpace=wrap;strokeWidth=2;" vertex="1" parent="1">
          <mxGeometry x="1006" y="574" width="1163" height="104" as="geometry" />
        </mxCell>
        <mxCell id="v9-iwY4V38GGb9OesN-k-5" value="Air-Gap Network / Firewall" style="whiteSpace=wrap;strokeWidth=2;" vertex="1" parent="1">
          <mxGeometry x="98" y="372" width="1326" height="104" as="geometry" />
        </mxCell>
        <mxCell id="v9-iwY4V38GGb9OesN-k-6" value="Private Registry / Helm Repo (Harbor / Artifactory)" style="whiteSpace=wrap;strokeWidth=2;" vertex="1" parent="1">
          <mxGeometry x="1667" y="372" width="717" height="104" as="geometry" />
        </mxCell>
        <mxCell id="v9-iwY4V38GGb9OesN-k-7" value="Admin / CI &amp; Operators" style="whiteSpace=wrap;strokeWidth=2;" vertex="1" parent="1">
          <mxGeometry x="1566" y="20" width="783" height="279" as="geometry" />
        </mxCell>
        <mxCell id="v9-iwY4V38GGb9OesN-k-8" value="Bastion / Jumpbox (SSH, Artifact Push)" style="whiteSpace=wrap;strokeWidth=2;" vertex="1" parent="1">
          <mxGeometry x="1601" y="196" width="260" height="78" as="geometry" />
        </mxCell>
        <mxCell id="v9-iwY4V38GGb9OesN-k-9" value="CI/CD (Jenkins/GitLab) Build → Push → Release" style="whiteSpace=wrap;strokeWidth=2;" vertex="1" parent="1">
          <mxGeometry x="2013" y="45" width="260" height="78" as="geometry" />
        </mxCell>
        <mxCell id="v9-iwY4V38GGb9OesN-k-10" value="Helm &amp; Image Push (air-gapped sync)" style="whiteSpace=wrap;strokeWidth=2;" vertex="1" parent="1">
          <mxGeometry x="2013" y="196" width="260" height="78" as="geometry" />
        </mxCell>
        <mxCell id="v9-iwY4V38GGb9OesN-k-11" value="Image Repo (443)" style="whiteSpace=wrap;strokeWidth=2;" vertex="1" parent="1">
          <mxGeometry x="2076" y="397" width="184" height="54" as="geometry" />
        </mxCell>
        <mxCell id="v9-iwY4V38GGb9OesN-k-12" value="Helm Chart Repo (443)" style="whiteSpace=wrap;strokeWidth=2;" vertex="1" parent="1">
          <mxGeometry x="1804" y="397" width="223" height="54" as="geometry" />
        </mxCell>
        <mxCell id="v9-iwY4V38GGb9OesN-k-13" value="Load Balancer (F5)" style="whiteSpace=wrap;strokeWidth=2;" vertex="1" parent="1">
          <mxGeometry x="1061" y="397" width="194" height="54" as="geometry" />
        </mxCell>
        <mxCell id="v9-iwY4V38GGb9OesN-k-14" value="CP-1 (kube-apiserver 6443)" style="whiteSpace=wrap;strokeWidth=2;" vertex="1" parent="1">
          <mxGeometry x="1526" y="599" width="254" height="54" as="geometry" />
        </mxCell>
        <mxCell id="v9-iwY4V38GGb9OesN-k-15" value="CP-2" style="whiteSpace=wrap;strokeWidth=2;" vertex="1" parent="1">
          <mxGeometry x="1184" y="599" width="93" height="54" as="geometry" />
        </mxCell>
        <mxCell id="v9-iwY4V38GGb9OesN-k-16" value="CP-3" style="whiteSpace=wrap;strokeWidth=2;" vertex="1" parent="1">
          <mxGeometry x="1041" y="599" width="93" height="54" as="geometry" />
        </mxCell>
        <mxCell id="v9-iwY4V38GGb9OesN-k-17" value="Worker-1" style="whiteSpace=wrap;strokeWidth=2;" vertex="1" parent="1">
          <mxGeometry x="2275" y="776" width="125" height="54" as="geometry" />
        </mxCell>
        <mxCell id="v9-iwY4V38GGb9OesN-k-18" value="Worker-2" style="whiteSpace=wrap;strokeWidth=2;" vertex="1" parent="1">
          <mxGeometry x="2074" y="940" width="125" height="54" as="geometry" />
        </mxCell>
        <mxCell id="v9-iwY4V38GGb9OesN-k-19" value="Worker-3" style="whiteSpace=wrap;strokeWidth=2;" vertex="1" parent="1">
          <mxGeometry x="1472" y="1109" width="125" height="54" as="geometry" />
        </mxCell>
        <mxCell id="v9-iwY4V38GGb9OesN-k-20" value="cilium-agent (daemonset) kube-proxy replacement" style="whiteSpace=wrap;strokeWidth=2;" vertex="1" parent="1">
          <mxGeometry x="590" y="928" width="260" height="78" as="geometry" />
        </mxCell>
        <mxCell id="v9-iwY4V38GGb9OesN-k-21" value="cilium-operator" style="whiteSpace=wrap;strokeWidth=2;" vertex="1" parent="1">
          <mxGeometry x="640" y="1109" width="172" height="54" as="geometry" />
        </mxCell>
        <mxCell id="v9-iwY4V38GGb9OesN-k-22" value="hubble-relay" style="whiteSpace=wrap;strokeWidth=2;" vertex="1" parent="1">
          <mxGeometry x="900" y="940" width="151" height="54" as="geometry" />
        </mxCell>
        <mxCell id="v9-iwY4V38GGb9OesN-k-23" value="hubble-ui" style="whiteSpace=wrap;strokeWidth=2;" vertex="1" parent="1">
          <mxGeometry x="911" y="1109" width="128" height="54" as="geometry" />
        </mxCell>
        <mxCell id="v9-iwY4V38GGb9OesN-k-24" value="Longhorn Storage (9500-9502, iSCSI 3260)" style="whiteSpace=wrap;strokeWidth=2;" vertex="1" parent="1">
          <mxGeometry x="2082" y="1290" width="260" height="78" as="geometry" />
        </mxCell>
        <mxCell id="v9-iwY4V38GGb9OesN-k-25" value="HashiCorp Vault (8200)" style="whiteSpace=wrap;strokeWidth=2;" vertex="1" parent="1">
          <mxGeometry x="2709" y="1109" width="223" height="54" as="geometry" />
        </mxCell>
        <mxCell id="v9-iwY4V38GGb9OesN-k-26" value="Prometheus (9090)" style="whiteSpace=wrap;strokeWidth=2;" vertex="1" parent="1">
          <mxGeometry x="326" y="1109" width="194" height="54" as="geometry" />
        </mxCell>
        <mxCell id="v9-iwY4V38GGb9OesN-k-27" value="Grafana (3000)" style="whiteSpace=wrap;strokeWidth=2;" vertex="1" parent="1">
          <mxGeometry x="339" y="1302" width="167" height="54" as="geometry" />
        </mxCell>
        <mxCell id="v9-iwY4V38GGb9OesN-k-28" value="ELK Stack (9200/9300, 5044)" style="whiteSpace=wrap;strokeWidth=2;" vertex="1" parent="1">
          <mxGeometry x="1121" y="1097" width="260" height="78" as="geometry" />
        </mxCell>
        <mxCell id="v9-iwY4V38GGb9OesN-k-29" value="NGINX Ingress Controller" style="whiteSpace=wrap;strokeWidth=2;" vertex="1" parent="1">
          <mxGeometry x="20" y="599" width="236" height="54" as="geometry" />
        </mxCell>
        <mxCell id="v9-iwY4V38GGb9OesN-k-30" value="push charts/images (443)" style="curved=1;startArrow=none;endArrow=block;exitX=0.5;exitY=1;entryX=0;entryY=0.3;rounded=0;" edge="1" parent="1" source="v9-iwY4V38GGb9OesN-k-8" target="v9-iwY4V38GGb9OesN-k-11">
          <mxGeometry relative="1" as="geometry">
            <Array as="points">
              <mxPoint x="1731" y="372" />
            </Array>
          </mxGeometry>
        </mxCell>
        <mxCell id="v9-iwY4V38GGb9OesN-k-31" value="trigger sync job" style="curved=1;startArrow=none;endArrow=block;exitX=0.5;exitY=1;entryX=0.5;entryY=0;rounded=0;" edge="1" parent="1" source="v9-iwY4V38GGb9OesN-k-9" target="v9-iwY4V38GGb9OesN-k-10">
          <mxGeometry relative="1" as="geometry">
            <Array as="points" />
          </mxGeometry>
        </mxCell>
        <mxCell id="v9-iwY4V38GGb9OesN-k-32" value="mirror to private registry" style="curved=1;startArrow=none;endArrow=block;exitX=0.77;exitY=1;entryX=0.75;entryY=0;rounded=0;" edge="1" parent="1" source="v9-iwY4V38GGb9OesN-k-10" target="v9-iwY4V38GGb9OesN-k-11">
          <mxGeometry relative="1" as="geometry">
            <Array as="points">
              <mxPoint x="2257" y="299" />
              <mxPoint x="2257" y="372" />
            </Array>
          </mxGeometry>
        </mxCell>
        <mxCell id="v9-iwY4V38GGb9OesN-k-33" value="publish charts" style="curved=1;startArrow=none;endArrow=block;exitX=0.09;exitY=1;entryX=0.62;entryY=0;rounded=0;" edge="1" parent="1" source="v9-iwY4V38GGb9OesN-k-10" target="v9-iwY4V38GGb9OesN-k-12">
          <mxGeometry relative="1" as="geometry">
            <Array as="points">
              <mxPoint x="1969" y="299" />
              <mxPoint x="1969" y="372" />
            </Array>
          </mxGeometry>
        </mxCell>
        <mxCell id="v9-iwY4V38GGb9OesN-k-34" value="6443 (K8s API)" style="curved=1;startArrow=none;endArrow=block;exitX=1;exitY=0.88;entryX=0;entryY=0.01;rounded=0;" edge="1" parent="1" source="v9-iwY4V38GGb9OesN-k-13" target="v9-iwY4V38GGb9OesN-k-14">
          <mxGeometry relative="1" as="geometry">
            <Array as="points">
              <mxPoint x="1404" y="476" />
              <mxPoint x="1404" y="574" />
            </Array>
          </mxGeometry>
        </mxCell>
        <mxCell id="v9-iwY4V38GGb9OesN-k-35" value="6443 (K8s API)" style="curved=1;startArrow=none;endArrow=block;exitX=0.69;exitY=1;entryX=0.49;entryY=0;rounded=0;" edge="1" parent="1" source="v9-iwY4V38GGb9OesN-k-13" target="v9-iwY4V38GGb9OesN-k-15">
          <mxGeometry relative="1" as="geometry">
            <Array as="points">
              <mxPoint x="1230" y="476" />
            </Array>
          </mxGeometry>
        </mxCell>
        <mxCell id="v9-iwY4V38GGb9OesN-k-36" value="6443 (K8s API)" style="curved=1;startArrow=none;endArrow=block;exitX=0.31;exitY=1;entryX=0.5;entryY=0;rounded=0;" edge="1" parent="1" source="v9-iwY4V38GGb9OesN-k-13" target="v9-iwY4V38GGb9OesN-k-16">
          <mxGeometry relative="1" as="geometry">
            <Array as="points">
              <mxPoint x="1087" y="476" />
            </Array>
          </mxGeometry>
        </mxCell>
        <mxCell id="v9-iwY4V38GGb9OesN-k-37" value="80/443 (Ingress)" style="curved=1;startArrow=none;endArrow=block;exitX=0;exitY=0.59;entryX=0.5;entryY=0;rounded=0;" edge="1" parent="1" source="v9-iwY4V38GGb9OesN-k-13" target="v9-iwY4V38GGb9OesN-k-29">
          <mxGeometry relative="1" as="geometry">
            <Array as="points">
              <mxPoint x="138" y="476" />
            </Array>
          </mxGeometry>
        </mxCell>
        <mxCell id="v9-iwY4V38GGb9OesN-k-38" value="image pull (443)" style="curved=1;startArrow=none;endArrow=block;exitX=0.87;exitY=1;entryX=1;entryY=0.25;rounded=0;" edge="1" parent="1" source="v9-iwY4V38GGb9OesN-k-11" target="v9-iwY4V38GGb9OesN-k-14">
          <mxGeometry relative="1" as="geometry">
            <Array as="points">
              <mxPoint x="2297" y="476" />
              <mxPoint x="2297" y="549" />
              <mxPoint x="2146" y="574" />
            </Array>
          </mxGeometry>
        </mxCell>
        <mxCell id="v9-iwY4V38GGb9OesN-k-39" value="image pull (443)" style="curved=1;startArrow=none;endArrow=block;exitX=0.5;exitY=1;entryX=1;entryY=0.14;rounded=0;" edge="1" parent="1" source="v9-iwY4V38GGb9OesN-k-11" target="v9-iwY4V38GGb9OesN-k-17">
          <mxGeometry relative="1" as="geometry">
            <Array as="points">
              <mxPoint x="2168" y="549" />
              <mxPoint x="2505" y="574" />
              <mxPoint x="2505" y="751" />
            </Array>
          </mxGeometry>
        </mxCell>
        <mxCell id="v9-iwY4V38GGb9OesN-k-40" value="helm pull" style="curved=1;startArrow=none;endArrow=block;exitX=0.5;exitY=1;entryX=1;entryY=0.03;rounded=0;" edge="1" parent="1" source="v9-iwY4V38GGb9OesN-k-12" target="v9-iwY4V38GGb9OesN-k-14">
          <mxGeometry relative="1" as="geometry">
            <Array as="points">
              <mxPoint x="1915" y="574" />
            </Array>
          </mxGeometry>
        </mxCell>
        <mxCell id="v9-iwY4V38GGb9OesN-k-41" value="schedule / kubelet (10250)" style="curved=1;startArrow=none;endArrow=block;exitX=1;exitY=0.76;entryX=0;entryY=0.22;rounded=0;" edge="1" parent="1" source="v9-iwY4V38GGb9OesN-k-14" target="v9-iwY4V38GGb9OesN-k-17">
          <mxGeometry relative="1" as="geometry">
            <Array as="points">
              <mxPoint x="2126" y="678" />
              <mxPoint x="2126" y="751" />
            </Array>
          </mxGeometry>
        </mxCell>
        <mxCell id="v9-iwY4V38GGb9OesN-k-42" value="schedule / kubelet (10250)" style="curved=1;startArrow=none;endArrow=block;exitX=0.5;exitY=1;entryX=0;entryY=0.35;rounded=0;" edge="1" parent="1" source="v9-iwY4V38GGb9OesN-k-14" target="v9-iwY4V38GGb9OesN-k-18">
          <mxGeometry relative="1" as="geometry">
            <Array as="points">
              <mxPoint x="1653" y="903" />
            </Array>
          </mxGeometry>
        </mxCell>
        <mxCell id="v9-iwY4V38GGb9OesN-k-43" value="schedule / kubelet (10250)" style="curved=1;startArrow=none;endArrow=block;exitX=0.26;exitY=1;entryX=0.5;entryY=-0.01;rounded=0;" edge="1" parent="1" source="v9-iwY4V38GGb9OesN-k-14" target="v9-iwY4V38GGb9OesN-k-19">
          <mxGeometry relative="1" as="geometry">
            <Array as="points">
              <mxPoint x="1534" y="678" />
            </Array>
          </mxGeometry>
        </mxCell>
        <mxCell id="v9-iwY4V38GGb9OesN-k-44" value="cilium dataplane 4240-4244" style="curved=1;startArrow=none;endArrow=block;exitX=1;exitY=0.84;entryX=1;entryY=0.32;rounded=0;" edge="1" parent="1" source="v9-iwY4V38GGb9OesN-k-17" target="v9-iwY4V38GGb9OesN-k-18">
          <mxGeometry relative="1" as="geometry">
            <Array as="points">
              <mxPoint x="2553" y="867" />
              <mxPoint x="2553" y="903" />
            </Array>
          </mxGeometry>
        </mxCell>
        <mxCell id="v9-iwY4V38GGb9OesN-k-45" value="cilium dataplane 4240-4244" style="curved=1;startArrow=none;endArrow=block;exitX=0.71;exitY=1;entryX=1;entryY=0.35;rounded=0;" edge="1" parent="1" source="v9-iwY4V38GGb9OesN-k-18" target="v9-iwY4V38GGb9OesN-k-19">
          <mxGeometry relative="1" as="geometry">
            <Array as="points">
              <mxPoint x="2217" y="1051" />
            </Array>
          </mxGeometry>
        </mxCell>
        <mxCell id="v9-iwY4V38GGb9OesN-k-46" value="iSCSI / Longhorn API 9500-9502 / 3260" style="curved=1;startArrow=none;endArrow=block;exitX=0.82;exitY=1;entryX=0.89;entryY=0;rounded=0;" edge="1" parent="1" source="v9-iwY4V38GGb9OesN-k-17" target="v9-iwY4V38GGb9OesN-k-24">
          <mxGeometry relative="1" as="geometry">
            <Array as="points">
              <mxPoint x="2432" y="867" />
              <mxPoint x="2432" y="1245" />
            </Array>
          </mxGeometry>
        </mxCell>
        <mxCell id="v9-iwY4V38GGb9OesN-k-47" value="iSCSI / Longhorn API 9500-9502 / 3260" style="curved=1;startArrow=none;endArrow=block;exitX=0.4;exitY=1;entryX=0.29;entryY=0;rounded=0;" edge="1" parent="1" source="v9-iwY4V38GGb9OesN-k-18" target="v9-iwY4V38GGb9OesN-k-24">
          <mxGeometry relative="1" as="geometry">
            <Array as="points">
              <mxPoint x="2096" y="1051" />
              <mxPoint x="2096" y="1245" />
            </Array>
          </mxGeometry>
        </mxCell>
        <mxCell id="v9-iwY4V38GGb9OesN-k-48" value="iSCSI / Longhorn API 9500-9502 / 3260" style="curved=1;startArrow=none;endArrow=block;exitX=0.5;exitY=0.99;entryX=0;entryY=0.3;rounded=0;" edge="1" parent="1" source="v9-iwY4V38GGb9OesN-k-19" target="v9-iwY4V38GGb9OesN-k-24">
          <mxGeometry relative="1" as="geometry">
            <Array as="points">
              <mxPoint x="1534" y="1245" />
            </Array>
          </mxGeometry>
        </mxCell>
        <mxCell id="v9-iwY4V38GGb9OesN-k-49" value="Vault API 8200" style="curved=1;startArrow=none;endArrow=block;exitX=0.5;exitY=1;entryX=0;entryY=0.13;rounded=0;" edge="1" parent="1" source="v9-iwY4V38GGb9OesN-k-17" target="v9-iwY4V38GGb9OesN-k-25">
          <mxGeometry relative="1" as="geometry">
            <Array as="points">
              <mxPoint x="2338" y="1051" />
            </Array>
          </mxGeometry>
        </mxCell>
        <mxCell id="v9-iwY4V38GGb9OesN-k-50" value="Vault API 8200" style="curved=1;startArrow=none;endArrow=block;exitX=0.21;exitY=1;entryX=0;entryY=0.27;rounded=0;" edge="1" parent="1" source="v9-iwY4V38GGb9OesN-k-18" target="v9-iwY4V38GGb9OesN-k-25">
          <mxGeometry relative="1" as="geometry">
            <Array as="points">
              <mxPoint x="2023" y="1051" />
            </Array>
          </mxGeometry>
        </mxCell>
        <mxCell id="v9-iwY4V38GGb9OesN-k-51" value="metrics scrape 9090/9100" style="curved=1;startArrow=none;endArrow=block;exitX=0.5;exitY=1;entryX=0.99;entryY=-0.01;rounded=0;" edge="1" parent="1" source="v9-iwY4V38GGb9OesN-k-20" target="v9-iwY4V38GGb9OesN-k-26">
          <mxGeometry relative="1" as="geometry">
            <Array as="points">
              <mxPoint x="720" y="1051" />
            </Array>
          </mxGeometry>
        </mxCell>
        <mxCell id="v9-iwY4V38GGb9OesN-k-52" value="dashboards" style="curved=1;startArrow=none;endArrow=block;exitX=0.5;exitY=0.99;entryX=0.5;entryY=0;rounded=0;" edge="1" parent="1" source="v9-iwY4V38GGb9OesN-k-26" target="v9-iwY4V38GGb9OesN-k-27">
          <mxGeometry relative="1" as="geometry">
            <Array as="points" />
          </mxGeometry>
        </mxCell>
        <mxCell id="v9-iwY4V38GGb9OesN-k-53" value="logs 5044" style="curved=1;startArrow=none;endArrow=block;exitX=0;exitY=0.65;entryX=1;entryY=0.26;rounded=0;" edge="1" parent="1" source="v9-iwY4V38GGb9OesN-k-17" target="v9-iwY4V38GGb9OesN-k-28">
          <mxGeometry relative="1" as="geometry">
            <Array as="points">
              <mxPoint x="1860" y="867" />
              <mxPoint x="1860" y="1051" />
            </Array>
          </mxGeometry>
        </mxCell>
        <mxCell id="v9-iwY4V38GGb9OesN-k-54" value="logs 5044" style="curved=1;startArrow=none;endArrow=block;exitX=0;exitY=0.94;entryX=1;entryY=0.28;rounded=0;" edge="1" parent="1" source="v9-iwY4V38GGb9OesN-k-18" target="v9-iwY4V38GGb9OesN-k-28">
          <mxGeometry relative="1" as="geometry">
            <Array as="points">
              <mxPoint x="1915" y="1051" />
            </Array>
          </mxGeometry>
        </mxCell>
        <mxCell id="v9-iwY4V38GGb9OesN-k-55" value="Hubble gRPC / metrics" style="curved=1;startArrow=none;endArrow=block;exitX=0;exitY=0.63;entryX=1;entryY=0.39;rounded=0;" edge="1" parent="1" source="v9-iwY4V38GGb9OesN-k-17" target="v9-iwY4V38GGb9OesN-k-22">
          <mxGeometry relative="1" as="geometry">
            <Array as="points">
              <mxPoint x="1757" y="867" />
              <mxPoint x="1757" y="903" />
            </Array>
          </mxGeometry>
        </mxCell>
        <mxCell id="v9-iwY4V38GGb9OesN-k-56" value="UI" style="curved=1;startArrow=none;endArrow=block;exitX=0.5;exitY=1;entryX=0.5;entryY=-0.01;rounded=0;" edge="1" parent="1" source="v9-iwY4V38GGb9OesN-k-22" target="v9-iwY4V38GGb9OesN-k-23">
          <mxGeometry relative="1" as="geometry">
            <Array as="points" />
          </mxGeometry>
        </mxCell>
      </root>
    </mxGraphModel>
  </diagram>
</mxfile>
